<?xml version="1.0" encoding="UTF-8" standalone="no"?>
<!-- Created with Inkscape (http://www.inkscape.org/) -->

<svg
   xmlns:dc="http://purl.org/dc/elements/1.1/"
   xmlns:cc="http://creativecommons.org/ns#"
   xmlns:rdf="http://www.w3.org/1999/02/22-rdf-syntax-ns#"
   xmlns:svg="http://www.w3.org/2000/svg"
   xmlns="http://www.w3.org/2000/svg"
   xmlns:xlink="http://www.w3.org/1999/xlink"
   version="1.1"
   width="241.46085"
   height="241.46085"
   id="svg2"
   xml:space="preserve"><metadata
     id="metadata8"><rdf:RDF><cc:Work
         rdf:about=""><dc:format>image/svg+xml</dc:format><dc:type
           rdf:resource="http://purl.org/dc/dcmitype/StillImage" /><dc:title></dc:title></cc:Work></rdf:RDF></metadata><defs
     id="defs6"><clipPath
       id="clipPath18"><path
         d="M 0,501.602 0,0 l 1863.85,0 0,501.602 -1863.85,0 z"
         id="path20" /></clipPath><linearGradient
       x1="-1073.228"
       y1="126.8516"
       x2="-1073.228"
       y2="1.2789771e-13"
       id="SVGID_2_"
       gradientUnits="userSpaceOnUse"
       gradientTransform="matrix(-1,0,0,1,-1008.1914,0)"><stop
         id="stop248"
         style="stop-color:#1b3967;stop-opacity:1"
         offset="0.011" /><stop
         id="stop250"
         style="stop-color:#13b5ea;stop-opacity:1"
         offset="0.46700001" /><stop
         id="stop252"
         style="stop-color:#002b5c;stop-opacity:1"
         offset="0.99449998" /></linearGradient><linearGradient
       x1="-1807.2036"
       y1="125.8584"
       x2="-1807.2036"
       y2="0.00048828119"
       id="SVGID_1_"
       gradientUnits="userSpaceOnUse"
       gradientTransform="translate(1915.9785,0)"><stop
         id="stop237"
         style="stop-color:#1b3967;stop-opacity:1"
         offset="0.011" /><stop
         id="stop239"
         style="stop-color:#13b5ea;stop-opacity:1"
         offset="0.46700001" /><stop
         id="stop241"
         style="stop-color:#002b5c;stop-opacity:1"
         offset="0.99449998" /></linearGradient><linearGradient
       x1="-1807.2036"
       y1="125.8584"
       x2="-1807.2036"
       y2="0.00048828119"
       id="linearGradient3718"
       xlink:href="#SVGID_1_"
       gradientUnits="userSpaceOnUse"
       gradientTransform="translate(1918.4485,-146.55553)" /><linearGradient
       x1="-1073.228"
       y1="126.8516"
       x2="-1073.228"
       y2="1.2789771e-13"
       id="linearGradient3720"
       xlink:href="#SVGID_2_"
       gradientUnits="userSpaceOnUse"
       gradientTransform="matrix(-1,0,0,1,-1005.7214,-146.55553)" /><linearGradient
       x1="-1073.228"
       y1="126.8516"
       x2="-1073.228"
       y2="1.2789771e-13"
       id="linearGradient3814"
       xlink:href="#SVGID_2_"
       gradientUnits="userSpaceOnUse"
       gradientTransform="matrix(-0.84421059,0,0,0.84421059,-824.199,72.94473)" /><linearGradient
       x1="-1807.2036"
       y1="125.8584"
       x2="-1807.2036"
       y2="0.00048828119"
       id="linearGradient3818"
       xlink:href="#SVGID_1_"
       gradientUnits="userSpaceOnUse"
       gradientTransform="matrix(0.84421059,0,0,0.84421059,1644.4162,72.94473)" /></defs><path
     d="m 120.69917,7.0246754 c -1.85796,0 -3.71108,0.475819 -5.375,1.4375 L 26.199173,59.899675 c -3.333544,1.921221 -5.375,5.499169 -5.375,9.34375 l 0,102.937505 c 0,3.8473 2.043599,7.41731 5.375,9.34375 l 89.124997,51.46875 c 3.33355,1.92366 7.4477,1.92366 10.78125,0 l 89.125,-51.46875 c 3.32783,-1.92644 5.40625,-5.49645 5.40625,-9.34375 l 0,-102.937505 c 0,-3.850298 -2.07271,-7.422529 -5.40625,-9.34375 l -89.125,-51.4374996 c -1.66392,-0.961681 -3.54829,-1.4375 -5.40625,-1.4375 z m -72.937497,72.9374996 20.84375,8.09375 6.4375,2.3125 18.90625,5.59375 c -0.06416,1.108449 -0.09375,2.223482 -0.09375,3.34375 0,20.468695 10.258037,45.390305 27.343747,63.468755 17.56385,-18.13972 28.15625,-43.52723 28.15625,-64.312505 0,-1.118579 -0.0288,-2.235302 -0.0937,-3.34375 l 18.78125,-5.53125 6.4375,-2.15625 0.1875,-0.0625 19.03125,-7.40625 c -0.89637,35.146435 -29.18619,71.230735 -63.53125,91.093755 8.19121,6.60746 17.48554,11.64972 27.6875,14.21875 l 0,0.71875 c 0.009,0.002 0.0222,-0.002 0.0312,0 l 0,1.375 c -10.3674,-0.88339 -20.12819,-3.59747 -29.15625,-7.65625 -2.71248,-1.10647 -5.38599,-2.34086 -8.0625,-3.65625 -7.30462,3.47306 -14.78125,6.17378 -22.249997,7.96875 -0.229039,0.0596 -0.45764,0.0981 -0.6875,0.15625 -0.115149,0.0268 -0.22861,0.0674 -0.34375,0.0937 -3.911952,0.97517 -7.921721,1.75682 -12.0625,2.28125 l 0,-0.71875 0,-1.375 c 9.66748,-2.43449 18.563097,-7.08532 26.437497,-13.1875 C 77.296345,151.07689 48.653917,114.85417 47.761673,79.962125 z"
     id="path28"
     style="fill:#83cd29;fill-opacity:1;fill-rule:evenodd;stroke:none" /></svg>